<svg width="32" height="32" viewBox="0 0 32 32" fill="none" xmlns="http://www.w3.org/2000/svg">
<path d="M29.9019 8.06621L29.2116 6.8543C29.1575 6.75932 29.0821 6.67813 28.9914 6.61707C28.9007 6.55601 28.7971 6.51673 28.6887 6.5023C28.5804 6.48787 28.4701 6.49868 28.3666 6.53388C28.2631 6.56908 28.1691 6.62772 28.092 6.70523L26.5043 8.2912C26.3882 8.40783 26.316 8.56099 26.2999 8.72474C26.2838 8.88849 26.3248 9.05277 26.4159 9.18977C26.9948 10.0742 27.4588 11.0288 27.7965 12.0304C28.4275 13.9028 28.6037 15.8985 28.3106 17.8525C28.0174 19.8065 27.2633 21.6627 26.1107 23.2676C24.958 24.8725 23.4398 26.1801 21.6816 27.0823C19.9234 27.9845 17.9756 28.4554 15.9994 28.456C13.965 28.4616 11.9607 27.9642 10.165 27.0081L12.8503 24.322C14.5142 24.9512 16.3286 25.067 18.0591 24.6544C19.7895 24.2418 21.3564 23.3197 22.5572 22.0074C23.7579 20.6951 24.5374 19.0529 24.7949 17.293C25.0523 15.5331 24.7759 13.7365 24.0013 12.1353C23.9521 12.0328 23.879 11.9436 23.7882 11.8751C23.6974 11.8067 23.5915 11.761 23.4794 11.7419C23.3673 11.7229 23.2522 11.731 23.1439 11.7655C23.0355 11.8001 22.9371 11.8602 22.8568 11.9407L21.2498 13.5363C21.1641 13.6219 21.1017 13.7279 21.0686 13.8444C21.0355 13.9608 21.0328 14.0838 21.0606 14.2016L21.1987 14.7786C21.4363 15.7893 21.3735 16.8473 21.0182 17.8229C20.6629 18.7984 20.0305 19.6491 19.1985 20.2704C18.3666 20.8917 17.3713 21.2566 16.3348 21.3205C15.2983 21.3843 14.2658 21.1442 13.3638 20.6297L12.6556 20.2239C12.5203 20.146 12.3629 20.1149 12.2081 20.1357C12.0533 20.1564 11.9097 20.2277 11.7996 20.3385L5.24047 26.8949C5.16887 26.9665 5.11339 27.0525 5.07774 27.1473C5.0421 27.242 5.0271 27.3433 5.03377 27.4443C5.04044 27.5453 5.06861 27.6438 5.1164 27.733C5.16419 27.8223 5.23049 27.9003 5.31088 27.9619L6.27729 28.7031C9.06427 30.8504 12.4864 32.0099 16.0049 31.9992C18.8061 31.9957 21.5574 31.2575 23.9841 29.8586C26.4108 28.4596 28.4281 26.4487 29.8345 24.0266C31.2409 21.6046 31.9872 18.856 31.9991 16.0554C32.0109 13.2548 31.2878 10.5001 29.9019 8.06621Z" fill="#282339"/>
<path d="M25.73 3.29761C22.9433 1.14956 19.5211 -0.0105353 16.0024 7.21e-05C13.1998 0.00225013 10.4469 0.739698 8.01862 2.13873C5.59039 3.53777 3.57188 5.5494 2.16479 7.97264C0.757693 10.3959 0.0112798 13.1459 0.000126846 15.9478C-0.0110261 18.7498 0.713471 21.5056 2.10123 23.94L2.79153 25.1505C2.84589 25.2454 2.92138 25.3265 3.01214 25.3875C3.1029 25.4486 3.2065 25.4879 3.3149 25.5024C3.4233 25.517 3.5336 25.5064 3.63724 25.4714C3.74089 25.4365 3.83509 25.3782 3.91256 25.301L5.49748 23.7164C5.61276 23.5996 5.68443 23.4467 5.70052 23.2834C5.7166 23.1201 5.67612 22.9562 5.58584 22.8192C5.00638 21.935 4.54242 20.9804 4.20525 19.9785C3.57425 18.1061 3.39804 16.1104 3.69119 14.1565C3.98433 12.2025 4.73842 10.3463 5.89111 8.74138C7.0438 7.13645 8.56199 5.82884 10.3202 4.92665C12.0784 4.02446 14.0261 3.55359 16.0024 3.55297C18.0368 3.54836 20.0407 4.04722 21.8354 5.00504L19.1487 7.68973C17.8029 7.17976 16.3533 7.00412 14.9246 7.1779C13.4959 7.35169 12.1307 7.8697 10.9465 8.68743C9.76219 9.50515 8.79422 10.5981 8.12572 11.8725C7.45722 13.1468 7.10819 14.5643 7.10862 16.0033C7.10862 16.151 7.14866 16.8246 7.16109 16.9405C7.26996 17.9599 7.55343 18.9531 7.9991 19.8764C8.04845 19.9789 8.12166 20.0682 8.21259 20.1366C8.30352 20.2051 8.40953 20.2507 8.52174 20.2698C8.63395 20.2888 8.7491 20.2807 8.85753 20.2462C8.96597 20.2116 9.06454 20.1515 9.14499 20.071L10.752 18.463C10.8376 18.3776 10.9 18.2719 10.9333 18.1557C10.9667 18.0395 10.9698 17.9168 10.9425 17.799L10.8045 17.2207C10.5666 16.21 10.6291 15.1518 10.9844 14.1762C11.3396 13.2005 11.9721 12.3498 12.8042 11.7285C13.6363 11.1072 14.6318 10.7424 15.6684 10.6789C16.705 10.6154 17.7375 10.856 18.6393 11.371L19.3475 11.7768C19.4831 11.854 19.6402 11.8847 19.7949 11.864C19.9495 11.8433 20.0931 11.7724 20.2035 11.6622L26.7613 5.1058C26.833 5.03419 26.8886 4.9481 26.9244 4.85329C26.9601 4.75848 26.9753 4.65712 26.9687 4.556C26.9622 4.45488 26.9342 4.35631 26.8865 4.26689C26.8388 4.17747 26.7726 4.09925 26.6923 4.03745L25.73 3.29761Z" fill="#282339"/>
</svg>
