<svg width="94" height="24" viewBox="0 0 94 24" fill="none" xmlns="http://www.w3.org/2000/svg">
<path d="M22.4211 6.0487L21.9035 5.13976C21.8629 5.06852 21.8064 5.00762 21.7384 4.96183C21.6704 4.91603 21.5927 4.88657 21.5114 4.87575C21.4301 4.86493 21.3475 4.87303 21.2698 4.89943C21.1922 4.92583 21.1217 4.96982 21.0639 5.02795L19.8734 6.21744C19.7863 6.30492 19.7322 6.41979 19.7201 6.5426C19.7081 6.66542 19.7388 6.78863 19.8071 6.89138C20.2412 7.55474 20.5891 8.27067 20.8424 9.02191C21.3155 10.4262 21.4477 11.923 21.2278 13.3885C21.008 14.854 20.4426 16.2462 19.5782 17.4499C18.7139 18.6536 17.5755 19.6343 16.2571 20.311C14.9387 20.9876 13.4781 21.3408 11.9962 21.3413C10.4707 21.3455 8.96781 20.9724 7.62132 20.2553L9.63486 18.2407C10.8826 18.7126 12.2431 18.7995 13.5407 18.49C14.8383 18.1805 16.0132 17.489 16.9136 16.5047C17.814 15.5205 18.3985 14.2888 18.5916 12.9689C18.7846 11.649 18.5773 10.3015 17.9965 9.10059C17.9596 9.02369 17.9048 8.95676 17.8367 8.90542C17.7687 8.85408 17.6892 8.81982 17.6052 8.80552C17.5211 8.79122 17.4348 8.7973 17.3536 8.82324C17.2723 8.84918 17.1985 8.89424 17.1383 8.95462L15.9333 10.1514C15.869 10.2155 15.8222 10.2951 15.7974 10.3824C15.7726 10.4697 15.7705 10.562 15.7914 10.6503L15.895 11.0831C16.0731 11.8411 16.0261 12.6346 15.7596 13.3663C15.4932 14.098 15.019 14.736 14.3951 15.2019C13.7713 15.6679 13.025 15.9417 12.2478 15.9895C11.4706 16.0374 10.6963 15.8574 10.02 15.4715L9.48889 15.1671C9.3874 15.1086 9.26944 15.0854 9.15335 15.1009C9.03727 15.1165 8.92958 15.1699 8.84704 15.253L3.92861 20.1704C3.87492 20.2241 3.83332 20.2886 3.80659 20.3597C3.77986 20.4308 3.76862 20.5067 3.77362 20.5825C3.77862 20.6583 3.79974 20.7321 3.83558 20.799C3.87141 20.866 3.92113 20.9245 3.98141 20.9707L4.70608 21.5266C6.79591 23.1371 9.36202 24.0068 12.0004 23.9987C14.1009 23.996 16.164 23.4424 17.9836 22.3932C19.8033 21.3439 21.3159 19.8358 22.3705 18.0192C23.4251 16.2026 23.9848 14.1412 23.9937 12.0407C24.0026 9.9402 23.4603 7.87412 22.4211 6.0487Z" fill="#282339"/>
<path d="M19.2928 2.47324C17.2032 0.862185 14.637 -0.0079016 11.9985 5.40758e-05C9.89695 0.00168762 7.83265 0.554782 6.01183 1.60407C4.191 2.65337 2.67742 4.16211 1.6223 5.97957C0.567183 7.79702 0.00748163 9.85954 -0.000881447 11.9611C-0.00924453 14.0626 0.534023 16.1295 1.57464 17.9553L2.09226 18.8632C2.13303 18.9343 2.18963 18.9952 2.25769 19.0409C2.32575 19.0867 2.40343 19.1162 2.48472 19.1271C2.566 19.138 2.64871 19.1301 2.72643 19.1039C2.80415 19.0777 2.87479 19.0339 2.93288 18.976L4.12133 17.7876C4.20778 17.6999 4.26152 17.5853 4.27358 17.4628C4.28564 17.3403 4.25529 17.2174 4.18759 17.1147C3.75309 16.4515 3.40518 15.7355 3.15235 14.9841C2.67919 13.5798 2.54706 12.083 2.76688 10.6175C2.9867 9.15199 3.55215 7.75985 4.4165 6.55613C5.28085 5.35241 6.41927 4.3717 7.73767 3.69504C9.05607 3.01839 10.5166 2.66523 11.9985 2.66476C13.524 2.66131 15.0266 3.03546 16.3724 3.75384L14.3578 5.76738C13.3486 5.3849 12.2617 5.25317 11.1903 5.38351C10.119 5.51385 9.09532 5.90236 8.20728 6.51567C7.31925 7.12897 6.59341 7.94872 6.09213 8.90447C5.59086 9.86023 5.32914 10.9234 5.32946 12.0026C5.32946 12.1134 5.35948 12.6186 5.3688 12.7056C5.45044 13.4702 5.663 14.215 5.99719 14.9075C6.03419 14.9844 6.08909 15.0514 6.15727 15.1027C6.22546 15.154 6.30495 15.1883 6.38909 15.2026C6.47323 15.2169 6.55958 15.2108 6.64089 15.1848C6.7222 15.1589 6.79611 15.1139 6.85644 15.0535L8.06146 13.8474C8.12564 13.7834 8.17244 13.7041 8.19744 13.617C8.22243 13.5298 8.2248 13.4378 8.20432 13.3495L8.1008 12.9157C7.92242 12.1577 7.96931 11.364 8.2357 10.6323C8.50209 9.90051 8.97638 9.26248 9.60034 8.79651C10.2243 8.33055 10.9708 8.05695 11.748 8.00932C12.5253 7.96168 13.2996 8.14208 13.9758 8.52837L14.5069 8.83273C14.6085 8.89066 14.7263 8.91363 14.8423 8.89811C14.9583 8.88259 15.0659 8.82943 15.1487 8.7468L20.0661 3.82941C20.1199 3.7757 20.1616 3.71113 20.1884 3.64002C20.2152 3.56891 20.2266 3.49289 20.2217 3.41705C20.2168 3.34121 20.1957 3.26728 20.16 3.20022C20.1242 3.13315 20.0746 3.07448 20.0143 3.02813L19.2928 2.47324Z" fill="#282339"/>
<path d="M39.5086 15.3135C39.419 15.2407 39.3063 15.2022 39.1907 15.2048C39.0752 15.2075 38.9644 15.2512 38.8782 15.328C38.1069 15.9264 37.2125 16.4803 35.905 16.4803C33.5115 16.4803 31.5642 14.4646 31.5642 11.9852C31.5642 9.50584 33.5043 7.47263 35.8874 7.47263C36.9226 7.47263 38.0407 7.90847 38.8627 8.63003C38.909 8.68377 38.9666 8.72666 39.0313 8.75564C39.0961 8.78463 39.1665 8.799 39.2374 8.79774C39.2989 8.79286 39.3586 8.77457 39.4122 8.74417C39.4659 8.71376 39.5122 8.67198 39.548 8.62175L40.3265 7.82047C40.376 7.77253 40.4151 7.71485 40.4413 7.65107C40.4675 7.58729 40.4802 7.51879 40.4787 7.44986C40.4757 7.37982 40.4584 7.31113 40.4278 7.24808C40.3972 7.18503 40.3539 7.12896 40.3006 7.08338C38.9413 5.89907 37.5759 5.37109 35.8687 5.37109C32.2247 5.37109 29.2598 8.35466 29.2598 12.0215C29.2611 13.7743 29.9577 15.4551 31.1967 16.6951C32.4357 17.935 34.1159 18.6329 35.8687 18.6356C36.6922 18.6454 37.5094 18.4921 38.2734 18.1848C39.0374 17.8774 39.733 17.422 40.3203 16.8447C40.3718 16.7921 40.4123 16.7298 40.4393 16.6613C40.4663 16.5929 40.4794 16.5197 40.4776 16.4461C40.4762 16.3875 40.4631 16.3298 40.4389 16.2765C40.4147 16.2231 40.38 16.1752 40.3368 16.1355L39.5086 15.3135Z" fill="#282339"/>
<path d="M45.1753 5.54688H43.9961C43.8646 5.55129 43.7396 5.60567 43.6467 5.69895C43.5538 5.79222 43.5 5.91738 43.4961 6.04897V17.9542C43.4997 18.086 43.5535 18.2114 43.6464 18.3049C43.7393 18.3984 43.8644 18.4529 43.9961 18.4574H45.1753C45.307 18.4529 45.4321 18.3984 45.525 18.3049C45.6179 18.2114 45.6717 18.086 45.6753 17.9542V6.04897C45.6714 5.91738 45.6175 5.79222 45.5247 5.69895C45.4318 5.60567 45.3068 5.55129 45.1753 5.54688Z" fill="#282339"/>
<path d="M59.1295 9.55429C59.1295 7.34509 57.3106 5.54688 55.0745 5.54688H50.2119C50.0791 5.54742 49.952 5.60056 49.8582 5.69466C49.7645 5.78877 49.7119 5.91616 49.7119 6.04897V17.9542C49.7116 18.0872 49.7641 18.2149 49.8579 18.3092C49.9516 18.4035 50.0789 18.4568 50.2119 18.4574H51.3735C51.5052 18.4529 51.6303 18.3984 51.7232 18.3049C51.8161 18.2114 51.8699 18.086 51.8735 17.9542V13.5265H54.3105L56.6449 18.2006C56.6874 18.2772 56.7497 18.341 56.8253 18.3852C56.9009 18.4295 56.987 18.4526 57.0745 18.4522H58.468C58.556 18.4551 58.6433 18.4347 58.7209 18.3931C58.7985 18.3515 58.8638 18.2901 58.91 18.2151C58.9541 18.136 58.9772 18.0469 58.9772 17.9563C58.9772 17.8657 58.9541 17.7766 58.91 17.6975L56.5414 13.2832C58.1419 12.572 59.1295 11.1579 59.1295 9.55429ZM56.9503 9.59053C56.9503 10.7117 56.0258 11.661 54.9316 11.661H51.9097V7.61218H54.9275C56.0238 7.61218 56.9462 8.51802 56.9462 9.59053H56.9503Z" fill="#282339"/>
<path d="M71.8208 15.3135C71.7311 15.2407 71.6184 15.2022 71.5029 15.2048C71.3874 15.2075 71.2766 15.2512 71.1903 15.328C70.4191 15.9264 69.5246 16.4803 68.2171 16.4803C65.8236 16.4803 63.8764 14.4646 63.8764 11.9852C63.8764 9.50584 65.8154 7.47263 68.1985 7.47263C69.2337 7.47263 70.3518 7.90847 71.1748 8.63003C71.2214 8.6843 71.2795 8.7275 71.3448 8.75651C71.4102 8.78552 71.4812 8.79961 71.5527 8.79774C71.6141 8.79286 71.6738 8.77457 71.7275 8.74417C71.7811 8.71376 71.8275 8.67198 71.8632 8.62175L72.6417 7.82047C72.6912 7.77248 72.7301 7.71477 72.7561 7.65098C72.7821 7.5872 72.7946 7.51872 72.7929 7.44986C72.7904 7.37983 72.7734 7.31109 72.7429 7.248C72.7124 7.18491 72.6692 7.12885 72.6159 7.08338C71.2597 5.89907 69.8942 5.37109 68.1871 5.37109C64.5431 5.37109 61.5781 8.35466 61.5781 12.0215C61.5795 13.7743 62.2761 15.4551 63.515 16.6951C64.754 17.935 66.4342 18.6329 68.1871 18.6356C69.0105 18.6453 69.8277 18.492 70.5917 18.1846C71.3557 17.8773 72.0513 17.4219 72.6386 16.8447C72.6902 16.792 72.7308 16.7294 72.7578 16.6608C72.7848 16.5922 72.7978 16.5188 72.796 16.4451C72.7947 16.3865 72.7815 16.3288 72.7573 16.2754C72.7331 16.222 72.6984 16.1741 72.6552 16.1345L71.8208 15.3135Z" fill="#282339"/>
<path d="M82.6651 16.4583H77.9858V6.04897C77.982 5.91738 77.9281 5.79222 77.8352 5.69895C77.7423 5.60567 77.6174 5.55129 77.4858 5.54688H76.3067C76.1739 5.54742 76.0467 5.60056 75.953 5.69466C75.8593 5.78877 75.8066 5.91616 75.8066 6.04897V17.9542C75.8064 18.0872 75.8589 18.2149 75.9526 18.3092C76.0464 18.4035 76.1737 18.4568 76.3067 18.4574H82.6651C82.731 18.4572 82.7963 18.4441 82.8572 18.4187C82.918 18.3934 82.9733 18.3563 83.0198 18.3096C83.0664 18.2628 83.1032 18.2074 83.1283 18.1465C83.1535 18.0855 83.1663 18.0202 83.1662 17.9542V16.9656C83.1669 16.8993 83.1544 16.8335 83.1295 16.7721C83.1047 16.7106 83.0679 16.6547 83.0213 16.6076C82.9747 16.5604 82.9193 16.5229 82.8581 16.4973C82.797 16.4717 82.7314 16.4584 82.6651 16.4583Z" fill="#282339"/>
<path d="M93.2584 7.56616C93.3912 7.56561 93.5184 7.51247 93.6121 7.41837C93.7058 7.32427 93.7584 7.19687 93.7584 7.06407V6.05678C93.7584 5.92397 93.7058 5.79658 93.6121 5.70248C93.5184 5.60838 93.3912 5.55524 93.2584 5.55469H86.1153C85.9824 5.55524 85.8553 5.60838 85.7616 5.70248C85.6678 5.79658 85.6152 5.92397 85.6152 6.05678V17.962C85.615 18.095 85.6675 18.2227 85.7612 18.317C85.8549 18.4113 85.9823 18.4646 86.1153 18.4652H93.2584C93.3914 18.4646 93.5187 18.4113 93.6125 18.317C93.7062 18.2227 93.7587 18.095 93.7584 17.962V16.9734C93.7584 16.8406 93.7058 16.7132 93.6121 16.6191C93.5184 16.525 93.3912 16.4718 93.2584 16.4713H87.7716V12.9194H92.3795C92.5125 12.9191 92.6399 12.8661 92.7339 12.772C92.8278 12.6778 92.8806 12.5503 92.8806 12.4173V11.411C92.8769 11.2791 92.823 11.1535 92.7299 11.06C92.6368 10.9665 92.5114 10.9121 92.3795 10.9079H87.7747V7.56616H93.2584Z" fill="#282339"/>
</svg>
