<svg width="88" height="24" viewBox="0 0 88 24" fill="none" xmlns="http://www.w3.org/2000/svg">
<path d="M6.90236 0.519532C6.02882 0.523888 5.16467 0.701201 4.3593 1.04137C3.55392 1.38155 2.82308 1.87795 2.20852 2.50214C1.59395 3.12633 1.1077 3.86613 0.777537 4.67928C0.44737 5.49244 0.279761 6.36302 0.284268 7.24131V9.46156H5.66151V6.24487C5.66145 6.0938 5.69099 5.94421 5.74846 5.80462C5.80592 5.66504 5.89017 5.53822 5.99641 5.43139C6.10264 5.32455 6.22877 5.23985 6.36759 5.18205C6.5064 5.12424 6.65519 5.09451 6.80544 5.09454H6.99929C7.14955 5.09451 7.29834 5.12425 7.43717 5.18205C7.576 5.23985 7.70214 5.32456 7.80839 5.43139C7.91464 5.53821 7.99892 5.66504 8.05641 5.80462C8.1139 5.94421 8.14347 6.09379 8.14344 6.24487V14.8681C8.8496 14.8681 9.54885 14.7282 10.2013 14.4565C10.8537 14.1849 11.4465 13.7866 11.9458 13.2846C12.4451 12.7825 12.8412 12.1865 13.1114 11.5306C13.3816 10.8746 13.5207 10.1716 13.5207 9.46156V7.24131C13.5245 5.46178 12.8276 3.75306 11.5821 2.48862C10.971 1.86466 10.2426 1.36921 9.43911 1.03115C8.63566 0.693094 7.77333 0.519165 6.90236 0.519532Z" fill="#282339"/>
<path d="M6.99955 19.2342H6.80569C6.65546 19.2342 6.5067 19.2045 6.3679 19.1467C6.2291 19.0889 6.10298 19.0042 5.99675 18.8974C5.89052 18.7906 5.80626 18.6638 5.74879 18.5243C5.69131 18.3847 5.66174 18.2351 5.66177 18.0841V9.46094C4.9556 9.46088 4.25633 9.60066 3.60391 9.87234C2.95148 10.144 2.35869 10.5422 1.85935 11.0443C1.36002 11.5463 0.963926 12.1424 0.693715 12.7983C0.423505 13.4543 0.284466 14.1574 0.284527 14.8674V17.0567C0.275568 17.9363 0.440138 18.8089 0.768717 19.6242C1.0973 20.4394 1.58336 21.181 2.19881 21.8062C2.81426 22.4313 3.54686 22.9276 4.35427 23.2663C5.16168 23.605 6.02787 23.7794 6.90273 23.7794C7.7776 23.7794 8.64379 23.605 9.45119 23.2663C10.2586 22.9276 10.9912 22.4313 11.6067 21.8062C12.2221 21.181 12.7082 20.4394 13.0368 19.6242C13.3653 18.8089 13.5299 17.9363 13.5209 17.0567V14.8674H8.1437V18.0841C8.1437 18.2351 8.1141 18.3847 8.0566 18.5243C7.9991 18.6638 7.91481 18.7906 7.80857 18.8974C7.70232 19.0042 7.57619 19.0889 7.43737 19.1467C7.29856 19.2045 7.14979 19.2342 6.99955 19.2342Z" fill="#282339"/>
<path d="M22.7137 7.34375H20.8291V16.9566H26.3606V15.1442H22.714L22.7137 7.34375Z" fill="#282339"/>
<path d="M32.3959 10.9005C32.1301 10.5684 31.7897 10.3043 31.4027 10.1301C31.0157 9.95581 30.5931 9.87629 30.1696 9.89804C29.7271 9.89454 29.2891 9.98654 28.885 10.1678C28.4809 10.3491 28.1201 10.6155 27.8272 10.9489C27.1982 11.6575 26.8506 12.574 26.8506 13.5238C26.8506 14.4736 27.1982 15.3902 27.8272 16.0988C28.1202 16.4321 28.481 16.6983 28.8851 16.8795C29.2892 17.0607 29.7272 17.1526 30.1696 17.1492C31.1258 17.1492 31.8679 16.815 32.3959 16.1467V16.957H34.158V10.0908H32.3959V10.9005ZM31.8567 14.9175C31.679 15.0963 31.4667 15.2367 31.233 15.33C30.9992 15.4233 30.749 15.4674 30.4977 15.4598C30.2473 15.4679 29.9979 15.4239 29.7652 15.3306C29.5325 15.2373 29.3214 15.0966 29.1453 14.9175C28.8023 14.5351 28.6125 14.0384 28.6125 13.5235C28.6125 13.0085 28.8023 12.5119 29.1453 12.1295C29.3215 11.9505 29.5326 11.8099 29.7653 11.7167C29.998 11.6234 30.2473 11.5793 30.4977 11.5873C30.749 11.5798 30.9992 11.6241 31.2329 11.7173C31.4666 11.8105 31.6789 11.9508 31.8567 12.1295C32.2035 12.51 32.3959 13.0073 32.3959 13.5235C32.3959 14.0396 32.2035 14.537 31.8567 14.9175Z" fill="#282339"/>
<path d="M38.6973 14.7087L36.9161 10.0938H34.9902L37.7893 16.7406C37.6722 17.1372 37.4418 17.4906 37.1268 17.7568C36.7958 17.9825 36.3986 18.089 35.9998 18.0591V19.7072C36.7774 19.7795 37.5549 19.5672 38.1893 19.1093C38.7753 18.6645 39.2461 17.9521 39.6016 16.9718L42.0913 10.0942H40.2065L38.6973 14.7087Z" fill="#282339"/>
<path d="M45.9055 9.89669C45.4251 9.87971 44.9465 9.96308 44.4999 10.1416C44.0532 10.3201 43.6483 10.5899 43.3106 10.9338C42.6586 11.6385 42.2973 12.566 42.2998 13.5284C42.3023 14.4909 42.6684 15.4164 43.3241 16.1177C44.0071 16.8041 44.9131 17.1474 46.0422 17.1476C47.353 17.1476 48.3455 16.6579 49.0196 15.6785L47.5993 14.8543C47.4186 15.0847 47.1851 15.2676 46.9186 15.3872C46.6521 15.5068 46.3607 15.5596 46.0695 15.5409C45.0222 15.5409 44.3802 15.1107 44.1434 14.2502H49.2928C49.3368 14.01 49.3597 13.7663 49.3611 13.522C49.3872 12.5656 49.0362 11.6376 48.3846 10.9403C48.0691 10.599 47.6847 10.3293 47.2571 10.1493C46.8296 9.96935 46.3688 9.88323 45.9055 9.89669ZM44.1164 12.8768C44.1943 12.4733 44.412 12.1108 44.7308 11.8535C45.0698 11.6015 45.484 11.4732 45.9052 11.4896C46.2903 11.4846 46.6665 11.6051 46.9777 11.8332C47.3086 12.0894 47.5307 12.4623 47.599 12.8766L44.1164 12.8768Z" fill="#282339"/>
<path d="M52.3519 11.2714V10.0901H50.5898V16.9565H52.3519V13.6745C52.3519 13.0153 52.5635 12.5438 52.9869 12.2599C53.4108 11.976 53.9237 11.8587 54.4281 11.9303V9.95333C53.9852 9.94767 53.5489 10.0615 53.1645 10.2829C52.785 10.5043 52.4967 10.8549 52.3519 11.2714Z" fill="#282339"/>
<path d="M63.0184 8.83046V7.34375H56.7513V9.15657H60.6304L56.6504 15.4426V16.9563H63.0945V15.144H59.038L63.0184 8.83046Z" fill="#282339"/>
<path d="M67.2534 9.89669C66.7731 9.87971 66.2944 9.96309 65.8477 10.1416C65.4011 10.3201 64.9961 10.5899 64.6584 10.9338C64.0063 11.6385 63.6449 12.566 63.6475 13.5285C63.65 14.491 64.0163 15.4165 64.672 16.1177C65.3551 16.8041 66.261 17.1474 67.3899 17.1476C68.7008 17.1476 69.6933 16.6579 70.3676 15.6785L68.947 14.8543C68.7664 15.0847 68.5328 15.2676 68.2664 15.3872C68 15.5068 67.7086 15.5595 67.4174 15.5409C66.37 15.5409 65.728 15.1107 65.4916 14.2502H70.641C70.6848 14.01 70.7076 13.7663 70.709 13.522C70.7351 12.5656 70.3841 11.6376 69.7326 10.9403C69.417 10.599 69.0326 10.3293 68.6051 10.1493C68.1776 9.96935 67.7167 9.88322 67.2534 9.89669ZM65.4643 12.8768C65.5423 12.4733 65.7601 12.1107 66.079 11.8535C66.4179 11.6014 66.8322 11.4731 67.2534 11.4896C67.6385 11.4845 68.0148 11.605 68.3259 11.8332C68.6568 12.0894 68.8788 12.4623 68.947 12.8766L65.4643 12.8768Z" fill="#282339"/>
<path d="M73.7005 11.2714V10.0901H71.9385V16.9565H73.7005V13.6745C73.7005 13.0153 73.9122 12.5438 74.3355 12.2599C74.7594 11.976 75.2722 11.8587 75.7765 11.9303V9.95332C75.3336 9.94772 74.8974 10.0615 74.5132 10.2829C74.1336 10.5043 73.8454 10.8549 73.7005 11.2714Z" fill="#282339"/>
<path d="M79.7935 9.89545C78.9668 9.90462 78.1687 10.2012 77.5348 10.7348C76.9009 11.2685 76.4702 12.0062 76.3159 12.8229C76.1615 13.6395 76.2931 14.4847 76.6882 15.2149C77.0833 15.9451 77.7176 16.5153 78.4833 16.8286C79.2491 17.142 80.0991 17.1792 80.8891 16.934C81.6791 16.6888 82.3603 16.1762 82.817 15.4834C83.2738 14.7905 83.478 13.9601 83.3949 13.133C83.3118 12.306 82.9466 11.5333 82.3612 10.9463C82.0276 10.6037 81.6276 10.3336 81.1859 10.1528C80.7442 9.97204 80.2703 9.88445 79.7935 9.89545ZM81.1183 14.8805C80.9455 15.0559 80.7388 15.1938 80.511 15.2858C80.2831 15.3778 80.0389 15.4219 79.7935 15.4154C79.5489 15.4224 79.3055 15.3785 79.0786 15.2864C78.8517 15.1944 78.6462 15.0562 78.4749 14.8805C78.1367 14.5094 77.9491 14.0242 77.9491 13.5209C77.9491 13.0175 78.1367 12.5324 78.4749 12.1613C78.6462 11.9856 78.8517 11.8475 79.0786 11.7554C79.3055 11.6634 79.5489 11.6194 79.7935 11.6263C80.0389 11.6199 80.2831 11.664 80.5109 11.756C80.7388 11.848 80.9455 11.9859 81.1183 12.1613C81.4607 12.5303 81.6512 13.0162 81.6512 13.5209C81.6512 14.0255 81.4607 14.5115 81.1183 14.8805Z" fill="#282339"/>
<path d="M87.1073 14.8438H84.9629V16.9587H87.1073V14.8438Z" fill="#282339"/>
</svg>
