<svg width="20" height="32" viewBox="0 0 20 32" fill="none" xmlns="http://www.w3.org/2000/svg">
<path d="M10.1035 7.95433e-07C8.90191 0.00599344 7.71326 0.249892 6.60544 0.71781C5.49762 1.18573 4.49233 1.86854 3.64698 2.72713C2.80163 3.58572 2.13278 4.60334 1.67863 5.72186C1.22447 6.84037 0.993922 8.03788 1.00012 9.246V12.3H8.39667V7.87536C8.39659 7.66757 8.43723 7.46179 8.51627 7.26979C8.59531 7.07779 8.7112 6.90334 8.85733 6.75639C9.00345 6.60944 9.17695 6.49293 9.36789 6.41342C9.55884 6.33391 9.7635 6.29302 9.97017 6.29306H10.2368C10.4435 6.29302 10.6482 6.33391 10.8391 6.41342C11.0301 6.49293 11.2036 6.60945 11.3498 6.75639C11.4959 6.90334 11.6118 7.07779 11.6909 7.26979C11.77 7.46179 11.8107 7.66755 11.8106 7.87536V19.7368C12.782 19.7368 13.7438 19.5445 14.6412 19.1707C15.5386 18.797 16.354 18.2493 17.0409 17.5587C17.7277 16.8681 18.2725 16.0483 18.6442 15.146C19.0159 14.2437 19.2072 13.2766 19.2072 12.3V9.246C19.2124 6.7982 18.2538 4.44781 16.5407 2.70854C15.7001 1.85026 14.698 1.16876 13.5929 0.703751C12.4877 0.23874 11.3015 -0.000503452 10.1035 7.95433e-07Z" fill="#282339"/>
<path d="M10.2372 25.7481H9.97052C9.76388 25.7482 9.55925 25.7072 9.36833 25.6277C9.1774 25.5483 9.00392 25.4317 8.8578 25.2848C8.71168 25.1379 8.59578 24.9635 8.51672 24.7715C8.43766 24.5796 8.39698 24.3738 8.39703 24.166V12.3047C7.42567 12.3046 6.46381 12.4969 5.56638 12.8706C4.66895 13.2443 3.85355 13.7921 3.1667 14.4826C2.47985 15.1732 1.93501 15.9931 1.56333 16.8954C1.19165 17.7977 1.00039 18.7648 1.00048 19.7414V22.7529C0.988155 23.9628 1.21452 25.1631 1.66649 26.2845C2.11846 27.4058 2.78706 28.426 3.63363 29.2859C4.48019 30.1458 5.48792 30.8285 6.59853 31.2944C7.70914 31.7603 8.90061 32.0002 10.104 32.0002C11.3074 32.0002 12.4989 31.7603 13.6095 31.2944C14.7201 30.8285 15.7278 30.1458 16.5744 29.2859C17.421 28.426 18.0896 27.4058 18.5415 26.2845C18.9935 25.1631 19.2199 23.9628 19.2075 22.7529V19.7414H11.811V24.166C11.811 24.3738 11.7703 24.5796 11.6912 24.7715C11.6121 24.9635 11.4962 25.1379 11.35 25.2849C11.2039 25.4318 11.0304 25.5483 10.8394 25.6277C10.6485 25.7072 10.4438 25.7482 10.2372 25.7481Z" fill="#282339"/>
</svg>
